<svg width="68" height="68" viewBox="0 0 68 68" fill="none" xmlns="http://www.w3.org/2000/svg">
<path d="M58.1264 17.6125H51.1095V10.2983C51.1095 4.56947 46.6273 -0.0574584 41.1312 0.000539346L32.5564 0.0649812C23.8456 0.0649812 15.6665 3.58994 9.52743 9.99547C3.38224 16.3946 0.000524637 24.9202 0.000524637 33.9743V39.9867C-0.055116 45.7155 4.32194 50.3876 9.818 50.3876H16.835V57.7017C16.835 63.4307 21.3233 68.0575 26.8131 67.9995L35.3879 67.9351C44.0987 67.9351 52.278 64.4036 58.417 58.0046C64.556 51.5991 67.9995 43.0734 67.9995 34.0193V28.007C68.0552 22.2781 63.6163 17.606 58.1202 17.606" fill="#221540"/>
<path d="M43.3882 42.3993C41.6117 43.2361 39.5594 43.6622 37.2238 43.6622C36.1824 43.6622 35.2022 43.5228 34.2834 43.2361C33.3568 42.9495 32.522 42.5078 31.7793 41.9188C31.0365 41.3222 30.3704 40.3924 29.7806 39.1218C29.1911 37.8432 28.9001 36.1309 28.9001 33.9845C28.9001 31.8382 29.1911 30.118 29.7806 28.8473C30.3704 27.5765 31.0365 26.6391 31.7793 26.0501C32.522 25.4535 33.3568 25.0196 34.2834 24.733C35.2099 24.4463 36.1901 24.3067 37.2238 24.3067C39.5594 24.3067 41.6117 24.7252 43.3882 25.5698L48.0975 18.8673C44.7743 17.6277 41.2441 17 37.4995 17C31.9019 17 27.5678 18.4723 24.5047 21.4167C21.4722 24.3223 19.9407 28.5218 19.9024 34.0001C19.9407 39.4782 21.4722 43.6779 24.5047 46.5835C27.5753 49.5279 31.9019 51 37.4995 51C41.2441 51 44.782 50.3723 48.0975 49.1327L43.3882 42.4225V42.3993Z" fill="#A6CD15"/>
</svg>
